<svg width="16" height="17" viewBox="0 0 16 17" fill="none" xmlns="http://www.w3.org/2000/svg">
<g clip-path="url(#clip0_1369_2689)">
<path d="M3.28568 13.2137C2.6657 12.5953 2.17404 11.8605 1.83893 11.0515C1.50383 10.2425 1.3319 9.37532 1.33301 8.49967C1.33301 4.81767 4.31768 1.83301 7.99968 1.83301C11.6817 1.83301 14.6663 4.81767 14.6663 8.49967C14.6663 12.1817 11.6817 15.1663 7.99968 15.1663H1.33301L3.28568 13.2137ZM5.33301 9.16634C5.33301 9.87359 5.61396 10.5519 6.11406 11.052C6.61416 11.5521 7.29244 11.833 7.99968 11.833C8.70692 11.833 9.3852 11.5521 9.8853 11.052C10.3854 10.5519 10.6663 9.87359 10.6663 9.16634H5.33301Z" fill="#90A1B9"/>
</g>
<defs>
<clipPath id="clip0_1369_2689">
<rect width="16" height="16" fill="white" transform="translate(0 0.5)"/>
</clipPath>
</defs>
</svg>
