<svg width="16" height="17" viewBox="0 0 16 17" fill="none" xmlns="http://www.w3.org/2000/svg">
<path d="M1.99967 2.5H13.9997C14.3679 2.5 14.6663 2.79848 14.6663 3.16667V13.8333C14.6663 14.2015 14.3679 14.5 13.9997 14.5H1.99967C1.63149 14.5 1.33301 14.2015 1.33301 13.8333V3.16667C1.33301 2.79848 1.63149 2.5 1.99967 2.5ZM4.66634 10.8333V8.16667L5.99967 9.5L7.33301 8.16667V10.8333H8.66634V6.16667H7.33301L5.99967 7.5L4.66634 6.16667H3.33301V10.8333H4.66634ZM11.9997 8.83333V6.16667H10.6663V8.83333H9.33301L11.333 10.8333L13.333 8.83333H11.9997Z" fill="#62748E"/>
</svg>
