<svg width="16" height="17" viewBox="0 0 16 17" fill="none" xmlns="http://www.w3.org/2000/svg">
<path d="M1.99967 2.5H13.9997C14.1765 2.5 14.3461 2.57024 14.4711 2.69526C14.5961 2.82029 14.6663 2.98986 14.6663 3.16667V13.8333C14.6663 14.0101 14.5961 14.1797 14.4711 14.3047C14.3461 14.4298 14.1765 14.5 13.9997 14.5H1.99967C1.82286 14.5 1.65329 14.4298 1.52827 14.3047C1.40325 14.1797 1.33301 14.0101 1.33301 13.8333V3.16667C1.33301 2.98986 1.40325 2.82029 1.52827 2.69526C1.65329 2.57024 1.82286 2.5 1.99967 2.5V2.5ZM8.03967 8.28867L3.76501 4.65867L2.90167 5.67467L8.04834 10.0447L13.1023 5.67133L12.2303 4.66267L8.04034 8.28867H8.03967Z" fill="#62748E"/>
</svg>
